<svg xmlns="http://www.w3.org/2000/svg" version="1.1" width="1000" height="1000"><circle cx="500" cy="500" r="500" fill="rgb(240, 240, 240)" stroke="" stroke-width="0" /><circle cx="500" cy="500" r="125" fill="rgb(181, 98, 126)" stroke="" stroke-width="0" /><path fill="rgb(181, 98, 126)" stroke="rgb(181, 98, 126)" stroke-width="1" d="M 402,429 A 120,120 0 0 1 552,392 L 607,279 A 245,245 0 0 0 301,355 L 402,429" /><path fill="rgb(181, 98, 126)" stroke="rgb(181, 98, 126)" stroke-width="1" d="M 260,500 A 240,240 0 0 1 683,345 L 779,265 A 365,365 0 0 0 135,500 L 260,500" /><path fill="rgb(181, 98, 126)" stroke="rgb(181, 98, 126)" stroke-width="1" d="M 611,842 A 360,360 0 0 1 166,365 L 50,318 A 485,485 0 0 0 649,961 L 611,842" /></svg>